<svg width="159" height="43" viewBox="0 0 159 43" fill="none" xmlns="http://www.w3.org/2000/svg">
<path d="M15 0H159V28C159 31.9782 157.42 35.7936 154.607 38.6066C151.794 41.4196 147.978 43 144 43H0V15C0 11.0218 1.58035 7.20644 4.3934 4.3934C7.20644 1.58035 11.0218 0 15 0Z" fill="#55AB60"/>
<path d="M137.382 27.168C136.607 27.168 135.856 27.0653 135.128 26.86C134.409 26.6453 133.831 26.37 133.392 26.034L134.162 24.326C134.582 24.634 135.081 24.8813 135.66 25.068C136.239 25.2547 136.817 25.348 137.396 25.348C138.04 25.348 138.516 25.2547 138.824 25.068C139.132 24.872 139.286 24.6153 139.286 24.298C139.286 24.0647 139.193 23.8733 139.006 23.724C138.829 23.5653 138.595 23.4393 138.306 23.346C138.026 23.2527 137.643 23.15 137.158 23.038C136.411 22.8607 135.8 22.6833 135.324 22.506C134.848 22.3287 134.437 22.044 134.092 21.652C133.756 21.26 133.588 20.7373 133.588 20.084C133.588 19.5147 133.742 19.0013 134.05 18.544C134.358 18.0773 134.82 17.7087 135.436 17.438C136.061 17.1673 136.822 17.032 137.718 17.032C138.343 17.032 138.955 17.1067 139.552 17.256C140.149 17.4053 140.672 17.62 141.12 17.9L140.42 19.622C139.515 19.1087 138.609 18.852 137.704 18.852C137.069 18.852 136.598 18.9547 136.29 19.16C135.991 19.3653 135.842 19.636 135.842 19.972C135.842 20.308 136.015 20.56 136.36 20.728C136.715 20.8867 137.251 21.0453 137.97 21.204C138.717 21.3813 139.328 21.5587 139.804 21.736C140.28 21.9133 140.686 22.1933 141.022 22.576C141.367 22.9587 141.54 23.4767 141.54 24.13C141.54 24.69 141.381 25.2033 141.064 25.67C140.756 26.1273 140.289 26.4913 139.664 26.762C139.039 27.0327 138.278 27.168 137.382 27.168Z" fill="white"/>
<path d="M28.08 27L28.066 21.12L25.182 25.964H24.16L21.29 21.246V27H19.162V17.2H21.038L24.706 23.29L28.318 17.2H30.18L30.208 27H28.08Z" fill="white"/>
<path d="M24.515 35C25.3517 35 26.03 34.3284 26.03 33.5C26.03 32.6716 25.3517 32 24.515 32C23.6783 32 23 32.6716 23 33.5C23 34.3284 23.6783 35 24.515 35Z" fill="white"/>
<path d="M43.192 19.048H40.056V17.2H48.596V19.048H45.46V27H43.192V19.048Z" fill="white"/>
<path d="M44.515 35C45.3517 35 46.03 34.3284 46.03 33.5C46.03 32.6716 45.3517 32 44.515 32C43.6783 32 43 32.6716 43 33.5C43 34.3284 43.6783 35 44.515 35Z" fill="white"/>
<path d="M72.974 17.2L69.768 27H67.332L65.176 20.364L62.95 27H60.528L57.308 17.2H59.66L61.872 24.088L64.182 17.2H66.282L68.522 24.144L70.804 17.2H72.974Z" fill="white"/>
<path d="M65.515 35C66.3517 35 67.03 34.3284 67.03 33.5C67.03 32.6716 66.3517 32 65.515 32C64.6783 32 64 32.6716 64 33.5C64 34.3284 64.6783 35 65.515 35Z" fill="white"/>
<path d="M85.192 19.048H82.056V17.2H90.596V19.048H87.46V27H85.192V19.048Z" fill="white"/>
<path d="M86.515 35C87.3517 35 88.03 34.3284 88.03 33.5C88.03 32.6716 87.3517 32 86.515 32C85.6783 32 85 32.6716 85 33.5C85 34.3284 85.6783 35 86.515 35Z" fill="white"/>
<path d="M102.43 19.02V21.61H106.966V23.43H102.43V27H100.162V17.2H107.568V19.02H102.43Z" fill="white"/>
<path d="M103.515 35C104.352 35 105.03 34.3284 105.03 33.5C105.03 32.6716 104.352 32 103.515 32C102.678 32 102 32.6716 102 33.5C102 34.3284 102.678 35 103.515 35Z" fill="white"/>
<path d="M120.382 27.168C119.607 27.168 118.856 27.0653 118.128 26.86C117.409 26.6453 116.831 26.37 116.392 26.034L117.162 24.326C117.582 24.634 118.081 24.8813 118.66 25.068C119.239 25.2547 119.817 25.348 120.396 25.348C121.04 25.348 121.516 25.2547 121.824 25.068C122.132 24.872 122.286 24.6153 122.286 24.298C122.286 24.0647 122.193 23.8733 122.006 23.724C121.829 23.5653 121.595 23.4393 121.306 23.346C121.026 23.2527 120.643 23.15 120.158 23.038C119.411 22.8607 118.8 22.6833 118.324 22.506C117.848 22.3287 117.437 22.044 117.092 21.652C116.756 21.26 116.588 20.7373 116.588 20.084C116.588 19.5147 116.742 19.0013 117.05 18.544C117.358 18.0773 117.82 17.7087 118.436 17.438C119.061 17.1673 119.822 17.032 120.718 17.032C121.343 17.032 121.955 17.1067 122.552 17.256C123.149 17.4053 123.672 17.62 124.12 17.9L123.42 19.622C122.515 19.1087 121.609 18.852 120.704 18.852C120.069 18.852 119.598 18.9547 119.29 19.16C118.991 19.3653 118.842 19.636 118.842 19.972C118.842 20.308 119.015 20.56 119.36 20.728C119.715 20.8867 120.251 21.0453 120.97 21.204C121.717 21.3813 122.328 21.5587 122.804 21.736C123.28 21.9133 123.686 22.1933 124.022 22.576C124.367 22.9587 124.54 23.4767 124.54 24.13C124.54 24.69 124.381 25.2033 124.064 25.67C123.756 26.1273 123.289 26.4913 122.664 26.762C122.039 27.0327 121.278 27.168 120.382 27.168Z" fill="white"/>
<path d="M120.515 35C121.352 35 122.03 34.3284 122.03 33.5C122.03 32.6716 121.352 32 120.515 32C119.678 32 119 32.6716 119 33.5C119 34.3284 119.678 35 120.515 35Z" fill="white"/>
</svg>
