<svg width="218" height="89" viewBox="0 0 218 89" fill="none" xmlns="http://www.w3.org/2000/svg">
<path d="M217 77.7505H1V77.8095H217V77.7505Z" fill="#EBEBEB" stroke="#D9D9D9"/>
<path d="M18.3972 79.9824H13.3887V80.0414H18.3972V79.9824Z" fill="#EBEBEB" stroke="#D9D9D9"/>
<path d="M101.861 79.3467H81.7949V79.4057H101.861V79.3467Z" fill="#EBEBEB" stroke="#D9D9D9"/>
<path d="M25.9813 82.1599H16.9814V82.2189H25.9813V82.1599Z" fill="#EBEBEB" stroke="#D9D9D9"/>
<path d="M205.169 81.7661H194.969V81.8251H205.169V81.7661Z" fill="#EBEBEB" stroke="#D9D9D9"/>
<path d="M174.823 81.7661H171.996V81.8251H174.823V81.7661Z" fill="#EBEBEB" stroke="#D9D9D9"/>
<path d="M160.005 80.7771H154.574V80.8361H160.005V80.7771Z" fill="#EBEBEB" stroke="#D9D9D9"/>
<path d="M142.856 80.7771H131.417V80.8361H142.856V80.7771Z" fill="#EBEBEB" stroke="#D9D9D9"/>
<path d="M56.9694 67.2959H11.3696C11.0125 67.2954 10.6701 67.1542 10.4177 66.9033C10.1653 66.6524 10.0236 66.3123 10.0236 65.9577V2.32729C10.0265 1.97461 10.1695 1.63733 10.4216 1.38878C10.6736 1.14023 11.0143 1.00051 11.3696 1H56.9694C57.1464 1 57.3217 1.03461 57.4853 1.10187C57.6488 1.16912 57.7974 1.26768 57.9226 1.39195C58.0478 1.51621 58.1471 1.66373 58.2149 1.82609C58.2826 1.98845 58.3175 2.16246 58.3175 2.3382V65.9567C58.3176 66.1325 58.2828 66.3066 58.2151 66.4691C58.1475 66.6316 58.0482 66.7792 57.923 66.9036C57.7978 67.028 57.6491 67.1266 57.4855 67.1939C57.3219 67.2613 57.1465 67.2959 56.9694 67.2959ZM11.3696 1.04662C11.0281 1.04715 10.7007 1.1822 10.4594 1.42213C10.2181 1.66206 10.0825 1.98725 10.0825 2.3263V65.9567C10.0825 66.2958 10.2181 66.6209 10.4594 66.8609C10.7007 67.1008 11.0281 67.2359 11.3696 67.2364H56.9694C57.3111 67.2356 57.6385 67.1005 57.8801 66.8607C58.1216 66.6209 58.2577 66.2959 58.2585 65.9567V2.32729C58.2577 1.98814 58.1216 1.66311 57.8801 1.42329C57.6385 1.18348 57.3111 1.0484 56.9694 1.04762L11.3696 1.04662Z" fill="#EBEBEB" stroke="#D9D9D9"/>
<path d="M205.974 67.2959H160.372C160.014 67.2951 159.672 67.1539 159.419 66.9031C159.167 66.6523 159.024 66.3124 159.024 65.9577V2.32729C159.027 1.97451 159.171 1.63738 159.423 1.38894C159.675 1.1405 160.016 1.00076 160.372 1H205.973C206.328 1.00103 206.669 1.14098 206.92 1.38948C207.172 1.63797 207.315 1.97496 207.317 2.32729V65.9577C207.317 66.3118 207.176 66.6514 206.924 66.9022C206.673 67.153 206.331 67.2946 205.974 67.2959ZM160.372 1.04662C160.03 1.04741 159.703 1.18249 159.461 1.4223C159.219 1.66212 159.083 1.98715 159.083 2.3263V65.9567C159.083 66.2959 159.219 66.6209 159.461 66.8607C159.703 67.1005 160.03 67.2356 160.372 67.2364H205.973C206.315 67.2356 206.642 67.1005 206.884 66.8607C207.126 66.6209 207.262 66.2959 207.263 65.9567V2.32729C207.262 1.98814 207.126 1.66311 206.884 1.42329C206.642 1.18348 206.315 1.0484 205.973 1.04762L160.372 1.04662Z" fill="#EBEBEB" stroke="#D9D9D9"/>
<path d="M13.6622 77.7505H21.6348L21.6348 44.7012H13.6622L13.6622 77.7505Z" fill="#E6E6E6" stroke="#D9D9D9"/>
<path d="M14.9872 77.7506H13.6602V74.7747H16.3783L14.9872 77.7506Z" fill="#F0F0F0" stroke="#D9D9D9"/>
<path d="M124.677 77.7505H132.65V44.7012H124.677V77.7505Z" fill="#E6E6E6" stroke="#D9D9D9"/>
<path d="M13.6626 76.6086H67.6177V44.7012L13.6626 44.7012L13.6626 76.6086Z" fill="#F0F0F0" stroke="#D9D9D9"/>
<path d="M14.6919 54.8662L192.97 54.8662V46.1148L14.6919 46.1148V54.8662Z" fill="#E6E6E6" stroke="#D9D9D9"/>
<path d="M14.6924 47.3083L66.5879 47.3083V46.118L14.6924 46.118V47.3083Z" fill="#E0E0E0" stroke="#D9D9D9"/>
<path d="M120.529 77.7506H121.856V74.7747H119.136L120.529 77.7506Z" fill="#F0F0F0" stroke="#D9D9D9"/>
<path opacity="0.22" d="M14.6919 65.0313L192.97 65.0312V56.2799L14.6919 56.2799V65.0313Z" fill="#E6E6E6" stroke="#D9D9D9"/>
<path d="M14.6924 57.4731L66.5879 57.4731V56.2828L14.6924 56.2828V57.4731Z" fill="#E0E0E0" stroke="#D9D9D9"/>
<path opacity="0.22" d="M14.6919 75.1931L192.97 75.1931V66.4418L14.6919 66.4418V75.1931Z" fill="#E6E6E6" stroke="#D9D9D9"/>
<path d="M14.6924 67.6353H66.5879V66.4449H14.6924V67.6353Z" fill="#E0E0E0" stroke="#D9D9D9"/>
<path d="M183.47 77.7506H201.958L203.598 20.1099H185.111L183.47 77.7506Z" fill="#E6E6E6" stroke="#D9D9D9"/>
<path d="M182.907 77.7506H201.394L203.035 20.1099H184.548L182.907 77.7506Z" fill="#F0F0F0" stroke="#D9D9D9"/>
<path d="M200.285 76.1117L201.832 21.7505H185.655L184.108 76.1117H200.285Z" fill="#FAFAFA" stroke="#D9D9D9"/>
<path d="M49.1483 35.7297L102.468 35.7297V6.21099L49.1483 6.21099L49.1483 35.7297Z" fill="#F0F0F0" stroke="#D9D9D9"/>
<path d="M18.2496 35.7297L186.634 35.7297V6.21099L18.2496 6.21099V35.7297Z" fill="#F5F5F5" stroke="#D9D9D9"/>
<path opacity="0.22" d="M179.116 33.2734V8.66309L49.1768 8.66309V33.2734L179.116 33.2734Z" fill="white" stroke="#D9D9D9"/>
<path d="M20.8114 43.38C21.8263 43.38 22.6491 42.5632 22.6491 41.5557C22.6491 40.5482 21.8263 39.7314 20.8114 39.7314C19.7964 39.7314 18.9736 40.5482 18.9736 41.5557C18.9736 42.5632 19.7964 43.38 20.8114 43.38Z" fill="#F0F0F0" stroke="#D9D9D9"/>
<path d="M43.2821 42.8116C43.5152 41.8311 42.9034 40.8485 41.9156 40.6171C40.9278 40.3857 39.938 40.993 39.7049 41.9735C39.4717 42.9541 40.0835 43.9366 41.0713 44.1681C42.0591 44.3995 43.0489 43.7922 43.2821 42.8116Z" fill="#E6E6E6" stroke="#D9D9D9"/>
<path d="M48.0682 41.5497C48.3013 40.5691 47.6896 39.5866 46.7017 39.3551C45.7139 39.1237 44.7241 39.731 44.491 40.7116C44.2578 41.6921 44.8696 42.6747 45.8574 42.9061C46.8453 43.1376 47.835 42.5303 48.0682 41.5497Z" fill="#F0F0F0" stroke="#D9D9D9"/>
<path d="M29.4646 42.2351C29.4646 42.2351 29.3038 44.7012 23.088 44.7012C16.8723 44.7012 16.7134 42.2351 16.7134 42.2351H29.4646Z" fill="#E6E6E6" stroke="#D9D9D9"/>
<path d="M60.0391 88.3372C85.3275 88.3372 105.828 87.1491 105.828 85.6836C105.828 84.2181 85.3275 83.03 60.0391 83.03C34.7508 83.03 14.2505 84.2181 14.2505 85.6836C14.2505 87.1491 34.7508 88.3372 60.0391 88.3372Z" fill="#F5F5F5"/>
<path d="M89.432 88.9987H64.7959C64.3885 89.0007 63.985 88.9205 63.6098 88.7629C63.2346 88.6054 62.8956 88.3738 62.6133 88.0822C62.3311 87.7906 62.1115 87.4451 61.9679 87.0667C61.8243 86.6883 61.7596 86.2848 61.7779 85.8808L64.526 15.4553C64.568 14.6211 64.9287 13.8342 65.5347 13.2549C66.1408 12.6756 66.9465 12.3475 67.7878 12.3374H92.4239C92.8312 12.3358 93.2345 12.4163 93.6095 12.574C93.9845 12.7317 94.3233 12.9633 94.6055 13.2548C94.8877 13.5463 95.1073 13.8916 95.251 14.2699C95.3948 14.6481 95.4597 15.0514 95.4419 15.4553L92.6928 85.8818C92.6506 86.7156 92.2899 87.5021 91.6841 88.0812C91.0783 88.6603 90.2729 88.9884 89.432 88.9987Z" fill="#263238"/>
<path d="M62.0336 19.6158H61.7977L61.9626 15.4316C62.0121 14.3858 62.463 13.3985 63.2226 12.6722C63.9823 11.9459 64.9932 11.5359 66.0478 11.5261V11.7642C65.0546 11.7752 64.103 12.1622 63.3876 12.8462C62.6721 13.5302 62.2468 14.4596 62.1985 15.4445L62.0336 19.6158Z" fill="#55AB60"/>
<path d="M69.7291 11.5171H67.7214V11.7512H69.7291V11.5171Z" fill="#55AB60"/>
<path d="M87.6908 88.9987H63.0547C62.6473 89.0007 62.2438 88.9205 61.8686 88.763C61.4934 88.6054 61.1544 88.3738 60.8721 88.0822C60.5899 87.7906 60.3703 87.4451 60.2267 87.0667C60.0831 86.6883 60.0184 86.2848 60.0367 85.8808L62.7858 15.4543C62.8277 14.6201 63.1885 13.8332 63.7945 13.2539C64.4006 12.6746 65.2063 12.3465 66.0476 12.3364H90.6837C91.091 12.3349 91.4943 12.4153 91.8693 12.573C92.2443 12.7307 92.5831 12.9623 92.8653 13.2538C93.1474 13.5453 93.3671 13.8907 93.5108 14.2689C93.6546 14.6471 93.7195 15.0504 93.7016 15.4543L90.9526 85.8808C90.9106 86.715 90.5499 87.5019 89.9439 88.0812C89.3378 88.6605 88.5321 88.9886 87.6908 88.9987Z" fill="#55AB60"/>
<path opacity="0.8" d="M88.4759 80.898H62.9044C62.6766 80.8996 62.4508 80.8551 62.2408 80.7673C62.0309 80.6794 61.8411 80.5501 61.6831 80.3871C61.5251 80.2242 61.4021 80.031 61.3218 79.8193C61.2414 79.6077 61.2053 79.382 61.2156 79.1561L63.601 18.0552C63.6239 17.5883 63.8257 17.1476 64.165 16.8234C64.5044 16.4993 64.9558 16.3161 65.4267 16.3113H90.9952C91.2231 16.3101 91.4489 16.355 91.6588 16.4431C91.8687 16.5312 92.0584 16.6607 92.2163 16.8238C92.3743 16.9869 92.4972 17.1801 92.5776 17.3918C92.658 17.6035 92.6942 17.8292 92.684 18.0552L90.2987 79.1561C90.2758 79.6223 90.0743 80.0623 89.7355 80.3861C89.3967 80.7099 88.9462 80.893 88.4759 80.898Z" fill="white"/>
<path opacity="0.4" d="M77.6183 80.8982H71.2417L81.9943 16.3115H88.371L77.6183 80.8982Z" fill="white"/>
<path opacity="0.4" d="M70.1204 80.8982H66.9326L77.6873 16.3115H80.8751L70.1204 80.8982Z" fill="white"/>
<path d="M81.7206 62.0115H69.1482C68.5676 62.0115 68.1069 61.3806 68.0809 60.5513L67.7242 48.9638C67.6962 48.0095 68.2488 47.1782 68.9163 47.1782H83.0856C83.7542 47.1782 84.2429 48.0055 84.1409 48.9638L82.8988 60.5513C82.8098 61.3816 82.2992 62.0115 81.7206 62.0115Z" fill="#55AB60"/>
<path d="M81.72 62.4541H69.1476C68.3191 62.4541 67.6716 61.6406 67.6386 60.5693L67.2819 48.9818C67.2466 48.327 67.4741 47.685 67.9144 47.1962C68.0418 47.0582 68.196 46.9471 68.3677 46.8697C68.5395 46.7923 68.7252 46.7502 68.9138 46.7458H83.083C83.2712 46.7504 83.4563 46.7946 83.626 46.8755C83.7957 46.9564 83.9461 47.0721 84.0674 47.2151C84.2722 47.4658 84.4231 47.7555 84.5107 48.0664C84.5984 48.3772 84.6209 48.7026 84.577 49.0225L83.3349 60.6099C83.3337 61.0586 83.1698 61.4919 82.8733 61.8305C82.5768 62.1691 82.1674 62.3905 81.72 62.4541ZM68.9157 47.6218C68.8455 47.6273 68.777 47.6465 68.7143 47.6784C68.6515 47.7102 68.5957 47.754 68.55 47.8073C68.2776 48.1248 68.1397 48.5348 68.1652 48.9511L68.522 60.5385C68.539 61.1109 68.8218 61.5752 69.1476 61.5752H81.721C82.0208 61.5752 82.3915 61.1466 82.4605 60.5058L83.7026 48.9183C83.7323 48.7212 83.7222 48.5202 83.6728 48.3271C83.6234 48.134 83.5357 47.9525 83.4148 47.7934C83.3762 47.7427 83.3268 47.701 83.2702 47.6714C83.2135 47.6417 83.151 47.6248 83.087 47.6218H68.9157Z" fill="#55AB60"/>
<path d="M82.8993 60.9909H82.8523C82.7946 60.9847 82.7387 60.9673 82.6878 60.9397C82.6369 60.912 82.592 60.8747 82.5556 60.8299C82.5193 60.785 82.4921 60.7335 82.4758 60.6782C82.4595 60.6229 82.4543 60.565 82.4606 60.5078L83.8276 47.7726C84.0405 45.7826 85.3036 44.2817 86.7656 44.2817H87.72C87.778 44.2817 87.8354 44.2931 87.889 44.3151C87.9426 44.3371 87.9913 44.3694 88.0323 44.4102C88.0733 44.4509 88.1058 44.4992 88.128 44.5524C88.1502 44.6056 88.1617 44.6626 88.1617 44.7202C88.1617 44.7778 88.1502 44.8348 88.128 44.888C88.1058 44.9412 88.0733 44.9895 88.0323 45.0302C87.9913 45.0709 87.9426 45.1033 87.889 45.1253C87.8354 45.1473 87.778 45.1587 87.72 45.1587H86.7756C85.7833 45.1587 84.8859 46.349 84.716 47.8658L83.351 60.602C83.3389 60.7114 83.2857 60.8123 83.2019 60.8844C83.1182 60.9565 83.0101 60.9945 82.8993 60.9909Z" fill="#55AB60"/>
<path d="M71.7338 66.3238C71.4884 66.3193 71.2466 66.2649 71.0232 66.164C70.7997 66.0632 70.5995 65.9181 70.4347 65.7376C69.8156 65.0157 69.5069 64.0812 69.5753 63.1356C69.6442 61.3847 70.7135 59.9612 71.9626 59.9612C72.2081 59.9651 72.4502 60.0192 72.6737 60.1201C72.8972 60.2209 73.0974 60.3664 73.2617 60.5475C73.8809 61.2694 74.1895 62.2038 74.1212 63.1495C74.0522 64.9003 72.9829 66.3238 71.7338 66.3238ZM71.9696 60.3441C70.9253 60.3441 70.0259 61.6029 69.971 63.1574C69.9354 63.5749 69.9838 63.9952 70.1131 64.394C70.2424 64.7928 70.4502 65.1621 70.7245 65.4806C70.8535 65.6241 71.0108 65.7397 71.1866 65.8204C71.3625 65.9011 71.5531 65.9452 71.7468 65.9499C72.7901 65.9499 73.6904 64.691 73.7454 63.1366C73.7809 62.7191 73.7326 62.2987 73.6033 61.8999C73.474 61.5011 73.2662 61.1318 72.9919 60.8133C72.8617 60.6687 72.7028 60.5523 72.5252 60.4716C72.3475 60.3908 72.155 60.3474 71.9596 60.3441H71.9696Z" fill="#55AB60"/>
<path d="M78.603 66.3238C78.3576 66.3197 78.1156 66.2655 77.8921 66.1646C77.6687 66.0638 77.4684 65.9184 77.3039 65.7376C76.6827 65.0168 76.3738 64.0815 76.4445 63.1356C76.5105 61.3847 77.5827 59.9612 78.8319 59.9612C79.0774 59.9648 79.3196 60.0188 79.5431 60.1197C79.7667 60.2205 79.9668 60.3662 80.131 60.5475C80.7521 61.2682 81.0611 62.2035 80.9904 63.1495C80.9245 64.9003 79.8522 66.3238 78.603 66.3238ZM78.8389 60.3441C77.7926 60.3441 76.8952 61.6029 76.8402 63.1574C76.8048 63.5746 76.8529 63.9947 76.9817 64.3935C77.1105 64.7922 77.3175 65.1617 77.5907 65.4806C77.7198 65.6241 77.8771 65.7397 78.0529 65.8204C78.2287 65.9011 78.4194 65.9452 78.613 65.9499C79.6593 65.9499 80.5567 64.691 80.6116 63.1366C80.6471 62.7193 80.599 62.2992 80.4702 61.9005C80.3414 61.5018 80.1345 61.1323 79.8612 60.8133C79.7313 60.669 79.5729 60.5529 79.3958 60.4722C79.2187 60.3914 79.0267 60.3479 78.8319 60.3441H78.8389Z" fill="#55AB60"/>
<path d="M81.4736 35.7883C81.7713 31.7053 79.7149 28.2303 76.8806 28.0267C74.0462 27.823 71.5072 30.9678 71.2095 35.0508C70.9118 39.1337 72.9681 42.6087 75.8025 42.8124C78.6368 43.016 81.1759 39.8712 81.4736 35.7883Z" fill="#55AB60"/>
<path d="M76.0628 43.2659C75.4586 43.2567 74.8628 43.1239 74.3126 42.8759C73.7624 42.6279 73.2697 42.27 72.865 41.8245C71.3392 40.0436 70.5763 37.7406 70.7395 35.4083C70.9043 31.0922 73.5375 27.5835 76.6154 27.5835C77.2195 27.5925 77.8152 27.7249 78.3654 27.9726C78.9156 28.2202 79.4084 28.5777 79.8133 29.0229C81.3399 30.8041 82.1029 33.1081 81.9388 35.4411C81.7729 39.7543 79.1377 43.2659 76.0628 43.2659ZM76.6174 28.4624C74.0192 28.4624 71.7717 31.5941 71.6208 35.444C71.4567 37.5402 72.131 39.6161 73.4976 41.2224C73.8202 41.5808 74.2133 41.8698 74.6528 42.0714C75.0923 42.2731 75.5688 42.3832 76.0528 42.3949C78.6511 42.3949 80.8985 39.2632 81.0494 35.4133C81.2147 33.3186 80.5427 31.2435 79.1787 29.6369C78.8557 29.2772 78.4616 28.9873 78.0211 28.7851C77.5805 28.5829 77.1027 28.4727 76.6174 28.4614V28.4624Z" fill="white"/>
<path d="M72.8389 35.2606C74.0545 36.4774 74.9932 37.9387 75.592 39.546C76.5073 36.8359 77.9108 34.3133 79.7341 32.1011C78.0241 33.1909 76.6241 34.6978 75.6679 36.4778C74.8475 35.8349 73.8724 35.4154 72.8389 35.2606Z" fill="white"/>
<path d="M75.4634 86.8165C75.2551 86.8148 75.0494 86.7704 74.8592 86.6861C74.669 86.6018 74.4984 86.4793 74.3582 86.3264C74.1342 86.0775 73.9625 85.7867 73.8534 85.471C73.7442 85.1554 73.6998 84.8212 73.7226 84.4882C73.6914 83.9341 73.8705 83.3885 74.2245 82.959C74.5786 82.5295 75.082 82.2472 75.6353 82.168C75.844 82.1708 76.0498 82.2163 76.24 82.3017C76.4301 82.387 76.6005 82.5104 76.7405 82.664C76.9631 82.9117 77.1337 83.2009 77.2423 83.5149C77.3509 83.8288 77.3954 84.161 77.3731 84.4922C77.4061 85.0467 77.2282 85.5933 76.8745 86.0237C76.5209 86.4542 76.0173 86.7371 75.4634 86.8165ZM75.6353 82.416C75.1472 82.495 74.7067 82.7528 74.4007 83.1384C74.0947 83.5241 73.9455 84.0096 73.9824 84.4992C73.9606 84.7984 73.9994 85.0989 74.0964 85.3831C74.1933 85.6672 74.3465 85.9293 74.547 86.1538C74.6642 86.2825 74.8069 86.3857 74.9661 86.4571C75.1253 86.5284 75.2977 86.5663 75.4724 86.5685C75.9606 86.4896 76.4012 86.2319 76.7073 85.8462C77.0133 85.4605 77.1625 84.9749 77.1253 84.4853C77.1472 84.1856 77.1085 83.8845 77.0116 83.5999C76.9146 83.3152 76.7613 83.0527 76.5607 82.8277C76.4432 82.6997 76.3003 82.5972 76.1411 82.5265C75.9819 82.4559 75.8097 82.4186 75.6353 82.417V82.416Z" fill="white"/>
<path d="M78.2565 15.2449C78.1599 15.2425 78.065 15.2204 77.9773 15.1802C77.8897 15.1399 77.8112 15.0823 77.7469 15.0108C77.6477 14.9007 77.5718 14.772 77.5236 14.6323C77.4753 14.4926 77.4558 14.3447 77.466 14.1974C77.4545 13.95 77.5366 13.7073 77.6962 13.5169C77.8557 13.3266 78.0813 13.2024 78.3285 13.1687C78.425 13.1712 78.52 13.1932 78.6076 13.2335C78.6953 13.2738 78.7737 13.3314 78.8381 13.4028C78.9379 13.5126 79.0144 13.6412 79.0631 13.7809C79.1119 13.9207 79.1319 14.0687 79.1219 14.2162C79.1334 14.4641 79.0509 14.7072 78.8907 14.8976C78.7305 15.088 78.5042 15.212 78.2565 15.2449ZM78.3274 13.4256C78.0067 13.4256 77.7278 13.7798 77.7139 14.2192C77.6986 14.4491 77.775 14.6757 77.9267 14.8501C77.9685 14.8964 78.0194 14.9336 78.0763 14.9594C78.1333 14.9851 78.1949 14.9989 78.2575 14.9999C78.5783 14.9999 78.8571 14.6458 78.8711 14.2063C78.8875 13.9757 78.8109 13.748 78.6582 13.5734C78.6162 13.5276 78.5652 13.4909 78.5083 13.4654C78.4514 13.44 78.3898 13.4265 78.3274 13.4256Z" fill="white"/>
<path d="M49.3538 20.5493C46.6497 20.1902 45.1877 21.8171 45.9562 24.7692C46.6807 27.5468 45.2786 27.1788 45.0118 29.8115C44.745 32.4443 46.9315 32.5524 47.643 34.7021C48.3545 36.8517 52.2808 39.294 53.8158 38.1929C55.3507 37.0918 58.3977 37.3448 58.6755 33.7061C58.9533 30.0675 56.0543 29.8711 57.0486 27.8831C58.3477 25.3039 55.4756 25.9329 55.4756 22.6464C55.4846 19.9997 51.6183 17.1309 49.3538 20.5493Z" fill="#263238"/>
<path d="M45.9514 34.5563C45.8925 35.6792 45.7885 36.7645 45.6237 37.8685C45.479 39.0101 45.2267 40.1357 44.8702 41.2304C44.7595 41.5501 44.6187 41.8586 44.4495 42.152C44.3338 42.3512 44.1916 42.534 44.0268 42.6956L43.9438 42.771L43.8988 42.8057L43.8729 42.8265L43.7729 42.895L43.5731 43.0309C43.0736 43.3491 42.5481 43.6251 42.0021 43.8562C40.9678 44.3067 39.8932 44.6597 38.7923 44.9107L38.4126 43.8721C39.345 43.3582 40.3023 42.8335 41.1757 42.2849C41.6025 42.0261 42.0127 41.7411 42.4039 41.4318L42.5318 41.3217L42.5977 41.2681V41.2562C42.5977 41.2562 42.6237 41.2116 42.6567 41.1441C42.7406 40.958 42.8107 40.766 42.8665 40.5697C43.0007 40.0926 43.1065 39.608 43.1833 39.1185C43.2733 38.6125 43.3462 38.0937 43.4082 37.5709C43.5291 36.5303 43.633 35.461 43.708 34.4224L45.9514 34.5563Z" fill="#FFB573"/>
<path d="M39.1167 43.8958L37.313 43.3423L37.6508 45.5088C38.3032 45.428 38.9144 45.1487 39.4005 44.7093L39.1167 43.8958Z" fill="#FFB573"/>
<path d="M35.831 44.737L35.9309 45.0207C35.9879 45.1818 36.0957 45.3203 36.2383 45.4157C36.3808 45.5112 36.5506 45.5584 36.7224 45.5505L37.6437 45.5078L37.306 43.3413L36.2927 43.7381C36.1007 43.8133 35.9455 43.9592 35.8594 44.1454C35.7734 44.3316 35.7632 44.5436 35.831 44.737Z" fill="#FFB573"/>
<path d="M48.0875 32.463C47.9884 33.486 47.7834 34.4963 47.476 35.4777C47.2681 36.1998 47.0932 36.7484 47.0932 36.7484L46.6795 36.6492L43.2669 35.7911C43.2129 34.0522 43.2808 32.1386 45.0237 30.9949C46.1189 30.2727 48.0736 31.2577 48.0875 32.463Z" fill="#55AB60"/>
<g opacity="0.5">
<path opacity="0.5" d="M48.0875 32.4642C47.9884 33.4873 47.7834 34.4975 47.476 35.4789C47.2681 36.2011 47.0932 36.7496 47.0932 36.7496L46.6795 36.6504L43.2669 35.7924C43.2129 34.0534 43.2808 32.1398 45.0237 30.9961C46.1189 30.2739 48.0736 31.2589 48.0875 32.4642Z" fill="black"/>
</g>
<path opacity="0.3" d="M48.0783 32.5803C47.8565 32.3462 47.3508 32.3065 46.2506 32.6527C44.6727 33.1487 44.2309 34.8629 44.21 36.0255L46.6753 36.6445L46.8881 36.698L47.088 36.7476C47.088 36.7476 47.1749 36.4738 47.2978 36.0532C47.3478 35.8816 47.4088 35.6852 47.4677 35.4739C47.7619 34.5304 47.9663 33.5616 48.0783 32.5803Z" fill="black"/>
<path d="M41.0787 86.8969L38.9961 86.1727L40.3042 81.6948L42.3848 82.422L41.0787 86.8969Z" fill="#FFB573"/>
<path d="M68.9032 81.5915L67.2103 82.8434L63.7407 79.3486L65.4336 78.0947L68.9032 81.5915Z" fill="#FFB573"/>
<path d="M66.5156 82.3347L68.3453 80.8318C68.376 80.8051 68.4154 80.7903 68.4563 80.7903C68.4971 80.7903 68.5365 80.8051 68.5672 80.8318L69.9722 82.0976C70.0067 82.1305 70.0338 82.1704 70.0516 82.2144C70.0695 82.2585 70.0776 82.3058 70.0757 82.3533C70.0737 82.4007 70.0616 82.4472 70.0401 82.4897C70.0187 82.5322 69.9884 82.5696 69.9512 82.5996C69.3047 83.1124 68.9639 83.3287 68.1615 83.9884C67.6618 84.3941 66.6315 85.3643 65.946 85.9247C65.2605 86.4852 64.6659 85.8454 64.9017 85.5498C65.6318 84.7305 66.1219 83.7284 66.3187 82.6521C66.3446 82.5266 66.4143 82.4142 66.5156 82.3347Z" fill="#263238"/>
<path d="M38.8541 85.5278L41.1685 86.487C41.2094 86.5052 41.2435 86.5359 41.2656 86.5746C41.2877 86.6133 41.2968 86.6581 41.2914 86.7023L41.0296 88.728C41.0237 88.7759 41.0066 88.8217 40.9797 88.8619C40.9527 88.9021 40.9167 88.9355 40.8745 88.9594C40.8323 88.9833 40.785 88.9971 40.7364 88.9996C40.6879 89.0021 40.6394 88.9933 40.5949 88.974C39.7754 88.6436 39.3907 88.478 38.3754 88.0574L35.2555 86.7678C34.4101 86.4166 34.592 85.495 34.9747 85.5625C36.1225 85.849 37.3257 85.8329 38.4653 85.5159C38.5915 85.4694 38.731 85.4737 38.8541 85.5278Z" fill="#263238"/>
<path opacity="0.2" d="M40.301 81.6968L39.6274 84.0032L41.6541 84.9128L42.3835 82.4209L40.301 81.6968Z" fill="black"/>
<path opacity="0.2" d="M65.4366 78.0989L63.7407 79.3488L65.5285 81.1493L67.2273 79.8954L65.4366 78.0989Z" fill="black"/>
<path d="M54.4891 43.4109L45.91 43.5329C45.1341 39.825 44.6486 36.063 44.458 32.2807C44.4569 31.9035 44.5879 31.5376 44.8288 31.2459C45.0697 30.9541 45.4053 30.7546 45.7781 30.6816C46.3028 30.5824 46.9593 30.4634 47.6079 30.3741C47.8327 30.3433 48.0585 30.3156 48.2814 30.2917C49.5774 30.18 50.8799 30.1611 52.1787 30.2352C52.3726 30.2352 52.5635 30.2521 52.7553 30.263C53.6247 30.3195 54.4412 30.4296 55.0158 30.5189C55.1215 30.5356 55.2226 30.5736 55.313 30.6305C55.4034 30.6874 55.4812 30.762 55.5415 30.8498C55.6019 30.9375 55.6435 31.0366 55.664 31.1409C55.6844 31.2452 55.6832 31.3525 55.6603 31.4564C55.4095 32.6289 55.2046 33.6576 55.0388 34.5791C54.7769 36.0443 54.611 37.2278 54.5141 38.2664C54.3675 39.9778 54.3591 41.6981 54.4891 43.4109Z" fill="#55AB60"/>
<g opacity="0.5">
<path opacity="0.5" d="M54.4891 43.4109L45.91 43.5329C45.1341 39.825 44.6486 36.063 44.458 32.2807C44.4569 31.9035 44.5879 31.5376 44.8288 31.2459C45.0697 30.9541 45.4053 30.7546 45.7781 30.6816C46.3028 30.5824 46.9593 30.4634 47.6079 30.3741C47.8327 30.3433 48.0585 30.3156 48.2814 30.2917C49.5774 30.18 50.8799 30.1611 52.1787 30.2352C52.3726 30.2352 52.5635 30.2521 52.7553 30.263C53.6247 30.3195 54.4412 30.4296 55.0158 30.5189C55.1215 30.5356 55.2226 30.5736 55.313 30.6305C55.4034 30.6874 55.4812 30.762 55.5415 30.8498C55.6019 30.9375 55.6435 31.0366 55.664 31.1409C55.6844 31.2452 55.6832 31.3525 55.6603 31.4564C55.4095 32.6289 55.2046 33.6576 55.0388 34.5791C54.7769 36.0443 54.611 37.2278 54.5141 38.2664C54.3675 39.9778 54.3591 41.6981 54.4891 43.4109Z" fill="black"/>
</g>
<path opacity="0.3" d="M54.5093 38.2742C54.0747 36.6946 54.0944 35.026 54.5663 33.457L55.0393 34.5869C54.7723 36.0521 54.6063 37.2355 54.5093 38.2742Z" fill="black"/>
<path d="M51.5336 27.6054C51.3923 28.5355 51.6229 29.4835 52.1761 30.2471C51.3079 31.2238 50.2594 32.0265 49.0873 32.612C48.7609 32.3309 48.5145 31.9696 48.3728 31.5644C48.2312 31.1591 48.1991 30.7241 48.2798 30.3027C49.6729 29.9515 49.6968 29.0299 49.2881 27.5013L50.3934 27.0559C50.495 26.9673 50.6207 26.9104 50.7547 26.8924C50.8887 26.8744 51.0251 26.896 51.1469 26.9546C51.2686 27.0131 51.3702 27.106 51.439 27.2216C51.5078 27.3372 51.5407 27.4704 51.5336 27.6044V27.6054Z" fill="#FFB573"/>
<path opacity="0.2" d="M50.3948 27.0547C50.49 26.9723 50.6061 26.9175 50.7306 26.8963C50.855 26.8751 50.983 26.8883 51.1003 26.9346C51.2177 26.9808 51.32 27.0582 51.396 27.1583C51.4719 27.2584 51.5187 27.3773 51.5311 27.5021C51.0436 28.2483 50.3312 28.8225 49.4955 29.1428C49.5303 28.5833 49.4598 28.0222 49.2876 27.4882L50.3948 27.0547Z" fill="black"/>
<path d="M53.5286 24.5322C52.7821 26.4775 52.5063 27.3147 51.1672 28.02C50.7509 28.2798 50.2705 28.4207 49.7787 28.4273C49.287 28.4339 48.803 28.3059 48.3797 28.0574C47.9564 27.8089 47.6103 27.4494 47.3793 27.0185C47.1482 26.5875 47.0412 26.1017 47.07 25.6144C47.2019 23.6989 48.4021 20.8419 50.6126 20.6544C51.0983 20.6116 51.5869 20.6928 52.0321 20.8902C52.4773 21.0876 52.8643 21.3947 53.1562 21.7823C53.4482 22.1699 53.6355 22.6253 53.7003 23.105C53.7652 23.5847 53.7053 24.0729 53.5266 24.5232L53.5286 24.5322Z" fill="#FFB573"/>
<path d="M49.7775 20.6505C48.3865 22.5987 52.3758 22.1206 52.1759 23.4945C52.06 24.3288 50.8608 25.8832 52.9673 26.1729C55.0739 26.4625 55.5956 23.0501 54.5123 21.7684C53.429 20.4868 51.1406 19.6545 49.7775 20.6505Z" fill="#263238"/>
<path d="M50.2183 20.592C49.9305 21.2953 48.3975 22.2585 47.8379 22.08C48.0349 21.6209 48.3684 21.2325 48.7938 20.9666C49.2191 20.7007 49.7161 20.57 50.2183 20.592Z" fill="#263238"/>
<path d="M53.4022 26.517C53.191 26.8605 52.8515 27.1073 52.4579 27.2035C51.9332 27.3255 51.6954 26.8563 51.8583 26.3762C52.0042 25.9476 52.4579 25.3633 52.9705 25.4546C53.0831 25.4763 53.1885 25.5256 53.277 25.598C53.3655 25.6704 53.4344 25.7637 53.4773 25.8693C53.5202 25.9749 53.5358 26.0895 53.5227 26.2026C53.5096 26.3158 53.4682 26.4238 53.4022 26.517Z" fill="#FFB573"/>
<path d="M45.908 43.5328C45.908 43.5328 44.456 55.9327 43.1169 63.6465C42.0686 69.6927 39.4194 82.2811 39.4194 82.2811L42.8581 83.4903C42.8581 83.4903 46.7974 70.3623 47.4869 64.7644C50.264 56.6866 52.2596 43.4644 52.2596 43.4644L45.908 43.5328Z" fill="#55AB60"/>
<path d="M38.8589 83.1323L42.8402 84.5211L43.3718 83.2523L39.0548 81.6135L38.8589 83.1323Z" fill="#263238"/>
<path opacity="0.3" d="M50.2563 47.2161L48.9712 49.6614C48.525 52.7072 48.6047 55.8062 49.207 58.8254C50.2773 54.5519 51.1317 50.0552 51.6633 47.0386L50.2563 47.2161Z" fill="black"/>
<path d="M47.7715 43.5327C47.7715 43.5327 49.3084 57.4058 52.1785 65.0997C53.6165 68.9684 64.2932 80.417 64.2932 80.417L66.7015 78.5045C66.7015 78.5045 59.9312 66.9497 56.9722 63.9301C55.765 57.2183 57.282 47.1654 54.4739 43.4058L47.7715 43.5327Z" fill="#55AB60"/>
<path d="M64.4992 81.2475L67.3233 78.948L66.5608 77.7051L63.4629 80.3775L64.4992 81.2475Z" fill="#263238"/>
<path d="M54.6198 42.9118L55.0195 43.6667C55.0505 43.7253 54.9816 43.7887 54.8826 43.7887L45.8828 43.9177C45.8049 43.9177 45.7409 43.88 45.7339 43.8334L45.647 43.0715C45.647 43.02 45.7079 42.9723 45.7909 42.9723L54.4849 42.8483C54.5109 42.8471 54.5369 42.8522 54.5604 42.8633C54.5839 42.8743 54.6044 42.891 54.6198 42.9118Z" fill="#263238"/>
<path d="M53.4565 43.8918H53.6925C53.7375 43.8918 53.7725 43.866 53.7705 43.8383L53.6455 42.8463C53.6455 42.8155 53.6025 42.7947 53.5555 42.7947H53.3195C53.2745 42.7947 53.2395 42.8205 53.2435 42.8482L53.3665 43.8402C53.3695 43.868 53.4115 43.8918 53.4565 43.8918Z" fill="#55AB60"/>
<path d="M46.5255 43.9891H46.7615C46.8085 43.9891 46.8415 43.9633 46.8395 43.9355L46.7165 42.9436C46.7165 42.9128 46.6715 42.89 46.6245 42.892H46.3885C46.3415 42.892 46.3055 42.9178 46.3105 42.9455L46.4335 43.9375C46.4375 43.9653 46.4805 43.9891 46.5255 43.9891Z" fill="#55AB60"/>
<path d="M49.9919 43.9334H50.2279C50.2749 43.9334 50.3109 43.9077 50.3059 43.8799L50.1829 42.8879C50.1829 42.8571 50.1379 42.8343 50.0929 42.8363H49.8569C49.8099 42.8363 49.7769 42.8621 49.7789 42.8899L49.9019 43.8819C49.8979 43.9176 49.9449 43.9334 49.9919 43.9334Z" fill="#55AB60"/>
<path d="M50.0815 24.0559C50.0315 24.2176 49.9045 24.3207 49.7975 24.29C49.6905 24.2592 49.6465 24.1005 49.6975 23.9388C49.7485 23.7771 49.8775 23.672 49.9835 23.7047C50.0895 23.7374 50.1335 23.8942 50.0815 24.0559Z" fill="#263238"/>
<path d="M48.2444 23.4845C48.1924 23.6462 48.0644 23.7494 47.9584 23.7186C47.8524 23.6879 47.8074 23.5291 47.8584 23.3674C47.9094 23.2058 48.0354 23.1026 48.1424 23.1333C48.2494 23.1641 48.2944 23.3228 48.2444 23.4845Z" fill="#263238"/>
<path d="M48.1885 23.1553L47.8345 22.9211C47.8345 22.9211 47.9375 23.2872 48.1885 23.1553Z" fill="#263238"/>
<path d="M48.7029 23.9111C48.4423 24.2349 48.1377 24.5214 47.7979 24.7623C47.8625 24.8466 47.9447 24.9161 48.039 24.9659C48.1332 25.0158 48.2372 25.0448 48.3439 25.0509L48.7029 23.9111Z" fill="#ED893E"/>
<path d="M48.881 25.9448C48.8727 25.9389 48.8666 25.9305 48.8635 25.9209C48.8604 25.9112 48.8606 25.9008 48.864 25.8913C48.8684 25.8787 48.8775 25.8682 48.8894 25.8621C48.9013 25.856 48.9152 25.8547 48.928 25.8585C49.1289 25.9262 49.3431 25.9457 49.553 25.9155C49.763 25.8853 49.9628 25.8063 50.136 25.6849C50.1464 25.6765 50.1597 25.6725 50.173 25.6738C50.1863 25.6751 50.1986 25.6816 50.207 25.6919C50.2155 25.7021 50.2196 25.7153 50.2182 25.7285C50.2169 25.7417 50.2104 25.7539 50.2 25.7623C50.0145 25.8949 49.7997 25.9815 49.5736 26.015C49.3474 26.0485 49.1165 26.0278 48.9 25.9548L48.881 25.9448Z" fill="#263238"/>
<path d="M50.788 23.6196C50.7743 23.6081 50.7636 23.5935 50.757 23.5769C50.7184 23.4586 50.6521 23.351 50.5634 23.263C50.4747 23.1751 50.3663 23.1093 50.247 23.071C50.2339 23.0681 50.2214 23.0626 50.2104 23.0549C50.1994 23.0472 50.1901 23.0374 50.1829 23.0262C50.1683 23.0034 50.1635 22.9758 50.1695 22.9495C50.1755 22.9232 50.1917 22.9003 50.2147 22.8859C50.2377 22.8715 50.2655 22.8667 50.292 22.8726C50.444 22.9188 50.5828 23.0004 50.6967 23.1104C50.8106 23.2205 50.8964 23.3559 50.947 23.5055C50.9518 23.5178 50.9541 23.5309 50.9537 23.5441C50.9533 23.5573 50.9503 23.5702 50.9448 23.5822C50.9393 23.5943 50.9314 23.6051 50.9217 23.614C50.9119 23.623 50.9005 23.6299 50.888 23.6345C50.8714 23.6404 50.8536 23.6422 50.8361 23.6396C50.8186 23.637 50.8021 23.6301 50.788 23.6196Z" fill="#263238"/>
<path d="M47.6969 22.437V22.4201C47.6922 22.3944 47.698 22.3678 47.713 22.3463C47.728 22.3247 47.751 22.3099 47.7769 22.3051C47.9328 22.2737 48.094 22.2799 48.247 22.3233C48.4 22.3666 48.5402 22.4457 48.6559 22.5541C48.6653 22.5633 48.6727 22.5742 48.6778 22.5863C48.6829 22.5984 48.6855 22.6114 48.6855 22.6245C48.6855 22.6376 48.6829 22.6506 48.6778 22.6626C48.6727 22.6747 48.6653 22.6857 48.6559 22.6949C48.6466 22.7042 48.6355 22.7116 48.6233 22.7166C48.6112 22.7217 48.5981 22.7243 48.5849 22.7243C48.5717 22.7243 48.5586 22.7217 48.5464 22.7166C48.5342 22.7116 48.5232 22.7042 48.5139 22.6949C48.4198 22.609 48.3062 22.547 48.1828 22.514C48.0594 22.481 47.9297 22.4781 47.8049 22.5054C47.7815 22.5086 47.7577 22.5035 47.7378 22.491C47.7178 22.4785 47.703 22.4593 47.6959 22.437H47.6969Z" fill="#263238"/>
<path d="M39.5484 31.6953C39.309 31.3661 39.1757 30.9727 39.1661 30.5668C39.1565 30.1609 39.2709 29.7616 39.4945 29.4216C40.0941 28.8026 40.5567 28.6281 40.4088 27.5458C40.2609 26.4635 41.9228 26.4953 42.0617 25.6699C42.8901 26.3732 43.7695 28.014 43.2989 28.7669C42.8282 29.5198 43.082 30.0843 42.9801 30.9959C42.8782 31.9076 40.8715 33.8192 39.5484 31.6953Z" fill="#55AB60"/>
<path opacity="0.5" d="M39.5484 31.6953C39.309 31.3661 39.1757 30.9727 39.1661 30.5668C39.1565 30.1609 39.2709 29.7616 39.4945 29.4216C40.0941 28.8026 40.5567 28.6281 40.4088 27.5458C40.2609 26.4635 41.9228 26.4953 42.0617 25.6699C42.8901 26.3732 43.7695 28.014 43.2989 28.7669C42.8282 29.5198 43.082 30.0843 42.9801 30.9959C42.8782 31.9076 40.8715 33.8192 39.5484 31.6953Z" fill="white"/>
<path d="M42.1306 27.4089C41.7497 30.0297 41.01 32.5865 39.9321 35.0086C40.1901 34.9877 40.4321 34.8762 40.6147 34.6941C40.6147 34.6941 42.2905 30.1677 42.1306 27.4089Z" fill="#55AB60"/>
<path d="M38.7529 32.9274C38.2212 32.5306 37.5367 31.6259 37.8605 30.8313C38.1842 30.0367 38.555 29.7034 38.0144 28.7481C37.4737 27.7929 39.0347 27.2145 38.8578 26.4041C39.8941 26.7651 41.3181 27.9674 41.1562 28.8305C40.9943 29.6935 41.442 30.1359 41.6849 31.0198C41.9277 31.9037 40.7725 34.4184 38.7529 32.9274Z" fill="#55AB60"/>
<path opacity="0.6" d="M38.7529 32.9274C38.2212 32.5306 37.5367 31.6259 37.8605 30.8313C38.1842 30.0367 38.555 29.7034 38.0144 28.7481C37.4737 27.7929 39.0347 27.2145 38.8578 26.4041C39.8941 26.7651 41.3181 27.9674 41.1562 28.8305C40.9943 29.6935 41.442 30.1359 41.6849 31.0198C41.9277 31.9037 40.7725 34.4184 38.7529 32.9274Z" fill="white"/>
<path d="M42.5486 33.6823C43.1062 33.6426 44.0106 33.3073 44.1475 32.5911C44.2844 31.8749 44.1715 31.4751 44.9929 31.0416C45.8144 30.6081 44.9689 29.4921 45.4656 28.9951C44.5662 28.7838 43.0003 28.9951 42.7165 29.6846C42.4327 30.374 41.917 30.4782 41.3374 31.0019C40.7578 31.5257 40.4271 33.8321 42.5486 33.6823Z" fill="#55AB60"/>
<path opacity="0.7" d="M42.5486 33.6823C43.1062 33.6426 44.0106 33.3073 44.1475 32.5911C44.2844 31.8749 44.1715 31.4751 44.9929 31.0416C45.8144 30.6081 44.9689 29.4921 45.4656 28.9951C44.5662 28.7838 43.0003 28.9951 42.7165 29.6846C42.4327 30.374 41.917 30.4782 41.3374 31.0019C40.7578 31.5257 40.4271 33.8321 42.5486 33.6823Z" fill="white"/>
<path d="M39.4424 29.021C39.9239 31.2683 40.0038 33.5821 39.6784 35.8568C39.9309 35.8063 40.1556 35.665 40.3094 35.46C40.3094 35.46 40.5574 31.3254 39.4424 29.021Z" fill="#55AB60"/>
<path d="M43.8566 30.2192C42.2886 31.8758 40.9568 33.7379 39.8983 35.7536C39.7746 35.5701 39.7201 35.3491 39.7444 35.1296C39.7444 35.1296 41.906 31.5882 43.8566 30.2192Z" fill="#55AB60"/>
<path d="M37.1888 32.4184C36.5202 32.0553 35.2002 33.0701 35.8897 34.2496C36.5792 35.4291 38.0152 35.9747 38.6768 35.3408C39.5882 35.1791 39.9849 33.7159 39.4372 32.464C39.3519 32.2392 39.2007 32.0449 39.0031 31.9062C38.8055 31.7675 38.5706 31.6907 38.3286 31.6858C38.0866 31.6809 37.8487 31.7481 37.6455 31.8786C37.4424 32.0092 37.2833 32.1972 37.1888 32.4184Z" fill="#55AB60"/>
<path d="M37.188 32.4146C37.188 32.4146 36.9519 31.6527 37.3419 31.4087C37.3946 31.4746 37.4434 31.5435 37.488 31.615C37.488 31.615 37.223 31.6914 37.188 32.4146Z" fill="#263238"/>
<path d="M44.742 30.4305C44.6621 32.0415 42.9943 33.2646 41.1835 33.6584C41.0721 33.7721 40.9911 33.9115 40.9476 34.0641C40.9333 34.0988 40.9312 34.1371 40.9415 34.1731C40.9518 34.2091 40.9741 34.2406 41.0046 34.2625C41.1421 34.3754 41.3038 34.4555 41.4773 34.4966C42.434 34.5198 43.3669 34.1985 44.1035 33.5919C45.0478 32.8747 45.9102 31.4542 45.6384 30.7955C45.3666 30.1368 45.1518 30.3571 45.0478 29.8581C44.9902 29.6553 44.9655 29.4446 44.9749 29.2341C44.9749 29.2341 44.739 29.3442 44.6751 29.4871C44.7645 29.7933 44.7873 30.1148 44.742 30.4305Z" fill="#55AB60"/>
<path opacity="0.2" d="M45.6511 30.8054C45.5887 30.6283 45.4861 30.4677 45.3513 30.3362C45.3416 31.0955 45.094 31.833 44.6428 32.4462C44.2122 33.0109 43.6521 33.4656 43.0091 33.7725C42.366 34.0794 41.6586 34.2297 40.9453 34.2109C40.9568 34.2337 40.974 34.2532 40.9953 34.2674C41.1327 34.3803 41.2944 34.4604 41.4679 34.5016C42.4247 34.5249 43.3576 34.2035 44.0942 33.5969C45.0395 32.8866 45.9079 31.4661 45.6511 30.8054Z" fill="black"/>
<path d="M44.747 29.8205C44.7123 29.6998 44.6712 29.5809 44.624 29.4644C44.7209 29.3399 44.8523 29.2461 45.002 29.1946V29.5815C45.002 29.5815 44.872 29.8037 44.747 29.8205Z" fill="#263238"/>
<path d="M41.0036 33.9045C40.968 33.944 40.9346 33.9854 40.9036 34.0285C40.8874 34.0751 40.8863 34.1256 40.9007 34.1728C40.9151 34.22 40.9441 34.2615 40.9836 34.2914C40.9982 34.3067 41.0158 34.3189 41.0351 34.3274C41.0545 34.3359 41.0754 34.3405 41.0966 34.341C41.0502 34.2691 41.0164 34.19 40.9966 34.1069C40.9949 34.0394 40.9972 33.9718 41.0036 33.9045Z" fill="#263238"/>
<path d="M46.041 31.1537C45.6232 32.7101 43.7365 33.5612 41.8798 33.5702C41.7441 33.6557 41.6327 33.7742 41.556 33.9144C41.5318 33.9443 41.5186 33.9816 41.5186 34.02C41.5186 34.0585 41.5318 34.0957 41.556 34.1257C41.6678 34.2699 41.8128 34.3856 41.9787 34.463C42.9089 34.6867 43.8892 34.5668 44.7369 34.1257C45.8021 33.6148 46.9523 32.4076 46.8264 31.7092C46.7005 31.0108 46.4417 31.1795 46.4467 30.6725C46.4307 30.4627 46.4506 30.2518 46.5056 30.0486C46.3765 30.0765 46.2577 30.1397 46.1629 30.2311C46.1961 30.5439 46.1543 30.86 46.041 31.1537Z" fill="#55AB60"/>
<path opacity="0.2" d="M46.8396 31.7123C46.8169 31.5252 46.7517 31.3458 46.6487 31.1875C46.4806 31.9269 46.0854 32.5963 45.5175 33.103C44.9786 33.5669 44.3359 33.8962 43.6428 34.0634C42.9497 34.2306 42.2264 34.2309 41.5332 34.0643C41.5395 34.0885 41.5515 34.1109 41.5682 34.1297C41.6808 34.2732 41.8255 34.3887 41.9909 34.467C42.9214 34.6891 43.9015 34.5682 44.749 34.1268C45.8143 33.6189 46.9645 32.4116 46.8396 31.7123Z" fill="black"/>
<path d="M46.1729 30.5705C46.1729 30.5705 46.1519 30.2957 46.1279 30.1975C46.249 30.0969 46.3964 30.0325 46.5529 30.012L46.4679 30.3889C46.4679 30.3889 46.2979 30.5705 46.1729 30.5705Z" fill="#263238"/>
<path d="M41.6531 33.7776C41.6531 33.7776 41.5701 33.8381 41.5281 33.8768C41.5029 33.9189 41.4917 33.9678 41.496 34.0165C41.5003 34.0653 41.5199 34.1115 41.5521 34.1486C41.6091 34.219 41.6521 34.221 41.6521 34.221C41.6215 34.1417 41.6046 34.0579 41.6021 33.973C41.6181 33.8966 41.6531 33.7776 41.6531 33.7776Z" fill="#263238"/>
<path d="M47.1378 32.9035L35.6108 34.4739L37.3841 47.2821L48.9111 45.7117L47.1378 32.9035Z" fill="#55AB60"/>
<path opacity="0.8" d="M47.1378 32.9035L35.6108 34.4739L37.3841 47.2821L48.9111 45.7117L47.1378 32.9035Z" fill="white"/>
<path opacity="0.2" d="M47.1371 32.9029L43.7354 33.3667L45.5074 46.1751L48.9091 45.7114L47.1371 32.9029Z" fill="#55AB60"/>
<path opacity="0.2" d="M48.9164 45.7102L47.0437 44.7113L45.4448 33.1357L47.1437 32.9036L48.9164 45.7102Z" fill="#55AB60"/>
<path opacity="0.3" d="M47.0397 44.7112L45.5098 46.1744L48.9124 45.7101L47.0397 44.7112Z" fill="#55AB60"/>
<path d="M50.771 43.9147L49.0142 43.2302L49.187 45.4126C49.8443 45.3796 50.4752 45.1461 50.9938 44.744L50.771 43.9147Z" fill="#FFB573"/>
<path d="M56.3141 33.0256C56.7868 34.338 57.1925 35.6415 57.5423 36.9936C57.7172 37.6662 57.882 38.3437 58.0149 39.047C58.0789 39.3962 58.1359 39.7504 58.1778 40.1204C58.2248 40.5094 58.2415 40.9014 58.2278 41.2929C58.2198 41.5468 58.1802 41.7987 58.1099 42.0429C58.0138 42.3434 57.8524 42.6194 57.6372 42.8513C57.3235 43.1846 56.951 43.4579 56.538 43.6578C55.8606 43.9847 55.1473 44.2324 54.4124 44.3959C53.0376 44.7125 51.6356 44.8985 50.2253 44.9514L50.0884 43.8542C50.7309 43.7015 51.3875 43.5328 52.03 43.3582C52.6726 43.1836 53.3082 42.9833 53.9198 42.763C54.5033 42.5647 55.0657 42.3095 55.5986 42.0012C55.7925 41.8887 55.9658 41.7445 56.1112 41.5746C56.1492 41.5161 56.1492 41.4992 56.1422 41.4992C56.1483 41.4134 56.1483 41.3272 56.1422 41.2413C56.1316 40.9582 56.1015 40.6762 56.0523 40.3971C56.0053 40.0926 55.9414 39.7801 55.8704 39.4597C55.7215 38.8337 55.5586 38.1959 55.3708 37.5581C55.002 36.2923 54.5893 35.0047 54.1716 33.7557L56.3141 33.0256Z" fill="#FFB573"/>
<path d="M47.3853 44.3075L47.5222 44.8135C47.5659 44.9745 47.6608 45.1172 47.7928 45.2203C47.9248 45.3235 48.0868 45.3815 48.2547 45.3858L49.1991 45.4116L49.0272 43.2292L48.0639 43.3394C47.9514 43.3505 47.8426 43.3859 47.7452 43.4428C47.6478 43.4998 47.564 43.577 47.4996 43.6693C47.4352 43.7615 47.3917 43.8665 47.3721 43.977C47.3526 44.0876 47.3574 44.201 47.3863 44.3095L47.3853 44.3075Z" fill="#FFB573"/>
<path d="M55.3125 30.5824C56.2998 30.9792 57.1112 34.2021 57.1112 34.2021L54.3841 36.3121C54.3841 36.3121 52.4524 33.3093 52.8471 32.0059C53.1779 30.9057 54.0563 30.0784 55.3125 30.5824Z" fill="#55AB60"/>
<g opacity="0.5">
<path opacity="0.5" d="M55.3125 30.5824C56.2998 30.9792 57.1112 34.2021 57.1112 34.2021L54.3841 36.3121C54.3841 36.3121 52.4524 33.3093 52.8471 32.0059C53.1779 30.9057 54.0563 30.0784 55.3125 30.5824Z" fill="black"/>
</g>
<path d="M65.8474 83.2443H65.8124C65.7631 83.2414 65.7153 83.2258 65.6739 83.199C65.6325 83.1722 65.5989 83.1352 65.5764 83.0915C65.5589 83.0667 65.5484 83.0378 65.546 83.0076C65.5435 82.9774 65.5492 82.9472 65.5624 82.9199C65.6824 82.6858 66.4414 82.5916 66.5264 82.5827C66.5364 82.581 66.5467 82.5826 66.5557 82.5873C66.5647 82.5919 66.572 82.5994 66.5764 82.6084C66.5815 82.6164 66.5843 82.6257 66.5843 82.6352C66.5843 82.6447 66.5815 82.654 66.5764 82.662C66.4144 82.8763 66.1074 83.2255 65.8474 83.2443ZM66.4214 82.6977C66.1214 82.7424 65.7124 82.8386 65.6554 82.9646C65.6482 82.9758 65.6444 82.9889 65.6444 83.0022C65.6444 83.0156 65.6482 83.0287 65.6554 83.04C65.6697 83.0687 65.6916 83.093 65.7187 83.1105C65.7458 83.128 65.7771 83.1378 65.8094 83.1391C65.9564 83.1461 66.1924 82.9824 66.4284 82.6938L66.4214 82.6977Z" fill="#263238"/>
<path d="M66.4895 82.6886C66.2315 82.7055 65.7215 82.5994 65.6125 82.4029C65.5941 82.3678 65.5884 82.3276 65.5962 82.2888C65.604 82.25 65.6249 82.215 65.6555 82.1897C65.6817 82.1618 65.7137 82.14 65.7493 82.1258C65.7849 82.1116 65.8232 82.1052 65.8615 82.1073C66.1685 82.1073 66.5615 82.5765 66.5705 82.6033C66.5751 82.6103 66.5775 82.6183 66.5775 82.6266C66.5775 82.6349 66.5751 82.643 66.5705 82.6499C66.5682 82.6585 66.5633 82.6662 66.5566 82.6721C66.5498 82.6779 66.5414 82.6816 66.5325 82.6827L66.4895 82.6886ZM65.8375 82.2055C65.796 82.2089 65.7573 82.2273 65.7285 82.2571C65.6835 82.3037 65.6905 82.3345 65.7025 82.3563C65.7715 82.4853 66.1755 82.5904 66.4325 82.5904C66.2935 82.4426 66.0405 82.2105 65.8585 82.2036L65.8375 82.2055Z" fill="#263238"/>
<path d="M37.6688 85.4803C37.5074 85.4267 37.3659 85.3261 37.2628 85.1916C37.2384 85.1514 37.2236 85.1062 37.2195 85.0595C37.2153 85.0127 37.2219 84.9657 37.2388 84.9218C37.2469 84.8971 37.2614 84.8748 37.2809 84.8574C37.3004 84.84 37.3241 84.828 37.3498 84.8226C37.6188 84.771 38.2568 85.4506 38.3828 85.5894C38.3886 85.5977 38.3917 85.6076 38.3917 85.6177C38.3917 85.6278 38.3886 85.6377 38.3828 85.646C38.3776 85.6553 38.3696 85.6627 38.3599 85.6674C38.3503 85.672 38.3394 85.6735 38.3288 85.6718C38.103 85.6296 37.8819 85.5655 37.6688 85.4803ZM37.4688 84.9317C37.4379 84.9164 37.4033 84.9099 37.3688 84.9129C37.3688 84.9129 37.3428 84.9129 37.3338 84.9476C37.3218 84.978 37.3172 85.0108 37.3201 85.0433C37.3231 85.0759 37.3336 85.1073 37.3508 85.1351C37.5804 85.3611 37.8818 85.5014 38.2038 85.5319C37.9912 85.2944 37.7433 85.0903 37.4688 84.9268V84.9317Z" fill="#263238"/>
<path d="M38.3263 85.6587C38.3197 85.6562 38.3139 85.6521 38.3093 85.6468C38.0923 85.4335 37.7423 84.7957 37.8623 84.5923C37.8903 84.5477 37.9473 84.5011 38.0723 84.5358C38.5453 84.6717 38.4003 85.5813 38.3933 85.621C38.3921 85.6301 38.3881 85.6386 38.3818 85.6454C38.3755 85.6521 38.3673 85.6567 38.3583 85.6587C38.3533 85.6609 38.3478 85.662 38.3423 85.662C38.3368 85.662 38.3313 85.6609 38.3263 85.6587ZM38.0903 84.6409H38.0573C38.0073 84.627 37.9743 84.629 37.9623 84.6409C37.8913 84.7609 38.1163 85.2411 38.3213 85.497C38.3263 85.2738 38.3543 84.758 38.0893 84.6429L38.0903 84.6409Z" fill="#263238"/>
<path d="M50.0308 23.7275L49.6738 23.4934C49.6738 23.4934 49.7768 23.8595 50.0308 23.7275Z" fill="#263238"/>
</svg>
