<svg width="20" height="19" viewBox="0 0 20 19" fill="none" xmlns="http://www.w3.org/2000/svg">
<path d="M9.94136 18.2399L3.91565 11.947C3.83192 11.8525 3.74906 11.7574 3.66708 11.6617C2.63778 10.461 2.08172 8.9945 2.08422 7.48705C2.08422 5.64174 2.91202 3.87201 4.38552 2.56718C5.85902 1.26234 7.85752 0.529297 9.94136 0.529297C12.0252 0.529297 14.0237 1.26234 15.4972 2.56718C16.9707 3.87201 17.7985 5.64174 17.7985 7.48705C17.801 8.99381 17.2452 10.4597 16.2164 11.6598L16.2156 11.6617C16.2156 11.6617 16.0014 11.9109 15.9692 11.9444L9.94136 18.2399ZM4.80708 10.8995C4.8085 10.8995 4.97422 11.0943 5.01208 11.1361L9.94136 16.2842L14.8771 11.1291C14.9085 11.0943 15.0756 10.8983 15.0764 10.8976C15.9172 9.91665 16.3716 8.71859 16.3699 7.48705C16.3699 5.97725 15.6926 4.52929 14.487 3.4617C13.2815 2.39411 11.6463 1.79434 9.94136 1.79434C8.2364 1.79434 6.60127 2.39411 5.39567 3.4617C4.19008 4.52929 3.51279 5.97725 3.51279 7.48705C3.51129 8.71936 3.9662 9.9181 4.80779 10.8995H4.80708Z" fill="#55AB60"/>
<path d="M13.5138 10.6497H12.0852V5.58951H7.79952V10.6497H6.37095V5.58951C6.37133 5.2541 6.52196 4.93253 6.78979 4.69536C7.05762 4.45819 7.42076 4.3248 7.79952 4.32446H12.0852C12.464 4.3248 12.8271 4.45819 13.095 4.69536C13.3628 4.93253 13.5134 5.2541 13.5138 5.58951V10.6497Z" fill="#55AB60"/>
<path d="M9.22752 9.38452H10.6561V10.6496H9.22752V9.38452Z" fill="#55AB60"/>
<path d="M9.22752 6.85449H10.6561V8.11954H9.22752V6.85449Z" fill="#55AB60"/>
</svg>
